<?xml version="1.0" encoding="UTF-8" standalone="no"?>
<svg 
    role="img" 
    xmlns="http://www.w3.org/2000/svg" 
    width="1000mm"
    height="1000mm"
    viewBox="0 0 1000 1000"
    style="max-width:1.6em; height: auto;">
    
    <path 
        id="path" 
        style="opacity:1;vector-effect:none;fill:#000000;fill-opacity:1;"
        d=" M 500 790C 533 790 560 817 560 850C 560 883 533 910 500 910C 467 910 440 883 440 850C 440 817 467 790 500 790C 500 790 500 790 500 790M 750 700C 778 700 800 722 800 750C 800 778 778 800 750 800C 722 800 700 778 700 750C 700 737 705 724 715 715C 724 705 737 700 750 700C 750 700 750 700 750 700M 250 680C 269 680 286 687 299 701C 313 714 320 731 320 750C 320 789 289 820 250 820C 231 820 214 813 201 799C 187 786 180 769 180 750C 180 731 187 714 201 701C 214 687 231 680 250 680C 250 680 250 680 250 680M 850 460C 861 460 871 464 878 472C 886 479 890 489 890 500C 890 511 886 521 878 528C 871 536 861 540 850 540C 828 540 810 522 810 500C 810 478 828 460 850 460C 850 460 850 460 850 460M 150 420C 194 420 230 456 230 500C 230 521 222 542 207 557C 192 572 171 580 150 580C 129 580 108 572 93 557C 78 542 70 521 70 500C 70 479 78 458 93 443C 108 428 129 420 150 420C 150 420 150 420 150 420M 750 220C 767 220 780 233 780 250C 780 267 767 280 750 280C 733 280 720 267 720 250C 720 242 723 234 729 229C 734 223 742 220 750 220C 750 220 750 220 750 220M 250 160C 300 160 340 200 340 250C 340 300 300 340 250 340C 200 340 160 300 160 250C 160 226 169 203 186 186C 203 169 226 160 250 160C 250 160 250 160 250 160M 500 50C 527 50 552 61 571 79C 589 98 600 123 600 150C 600 177 589 202 571 221C 552 239 527 250 500 250C 473 250 448 239 429 221C 411 202 400 177 400 150C 400 123 411 98 429 79C 448 61 473 50 500 50C 500 50 500 50 500 50"
        transform="translate(1000,0) scale(-1,1)rotate(90,500,500)">
    </path>    
</svg>