<?xml version="1.0" encoding="UTF-8" standalone="no"?>
<svg 
    role="img" 
    xmlns="http://www.w3.org/2000/svg" 
    width="1000mm"
    height="1000mm"
    viewBox="0 0 1000 1000"
    style="max-width:1.6em; height: auto;">
    
    <path 
        id="path" 
        style="opacity:1;vector-effect:none;fill:#000000;fill-opacity:1;"
        d="M 100 0C 45 0 0 45 0 100C 0 100 0 900 0 900C 0 955 45 1000 100 1000C 100 1000 900 1000 900 1000C 955 1000 1000 955 1000 900C 1000 900 1000 100 1000 100C 1000 45 955 0 900 0C 900 0 100 0 100 0C 100 0 100 0 100 0M 100 75C 100 75 900 75 900 75C 914 75 925 86 925 100C 925 100 925 900 925 900C 925 914 914 925 900 925C 900 925 100 925 100 925C 86 925 75 914 75 900C 75 900 75 100 75 100C 75 86 86 75 100 75C 100 75 100 75 100 75 M 296 382C 296 382 253 523 253 523C 253 523 340 523 340 523C 340 523 296 382 296 382M 271 298C 271 298 321 298 321 298C 338 298 352 309 357 325C 357 325 457 650 457 650C 461 663 458 677 449 687C 440 697 426 701 413 698C 400 695 389 685 386 672C 386 672 363 598 363 598C 363 598 230 598 230 598C 230 598 207 672 207 672C 203 685 193 695 180 698C 167 701 153 697 144 687C 134 677 131 663 136 650C 136 650 236 325 236 325C 240 309 255 298 271 298C 271 298 271 298 271 298M 671 298C 681 298 691 302 698 309C 705 316 709 326 709 336C 709 336 709 349 709 349C 709 349 834 348 834 348C 847 348 860 355 867 367C 874 379 874 393 867 405C 860 416 848 424 834 423C 834 423 794 424 794 424C 788 471 771 519 744 562C 758 565 773 567 789 568C 803 569 815 577 821 589C 827 601 826 615 819 626C 811 638 798 644 785 643C 753 641 723 635 696 623C 666 653 630 680 589 701C 577 707 562 706 551 699C 539 691 533 678 534 665C 535 651 543 639 555 633C 584 619 609 602 630 583C 607 563 586 539 567 511C 559 500 558 485 565 472C 571 460 584 452 598 452C 610 452 622 459 629 470C 645 494 661 513 678 527C 699 495 712 459 718 424C 718 424 517 425 517 425C 503 425 491 418 484 406C 477 394 477 380 484 368C 491 357 503 349 517 350C 517 350 634 349 634 349C 634 349 634 336 634 336C 634 315 650 298 671 298C 671 298 671 298 671 298"
        transform="">
    </path>    
</svg>